<?xml version="1.0" encoding="utf-8"?>
<!-- Generator: Adobe Illustrator 22.0.1, SVG Export Plug-In . SVG Version: 6.00 Build 0)  -->
<svg version="1.1" xmlns="http://www.w3.org/2000/svg" xmlns:xlink="http://www.w3.org/1999/xlink" x="0px" y="0px"
	 viewBox="0 0 671.2 167" style="enable-background:new 0 0 671.2 167;" xml:space="preserve">
<style type="text/css">
	.st0{fill:#007EA7;}
</style>
<g id="Layer_1">
	<path class="st0" d="M38.5,120.9c-21.8,0-35.8-17.5-35.8-40c0-22.3,14.5-39.7,36.2-39.7c17.4,0,31.4,12.9,32.4,30H50.1
		c-1.2-6.8-5.3-10.7-11.5-10.7c-10.3,0-13.7,11-13.7,20.4c0,12.6,5.2,20.4,13.7,20.4c6.4,0,10.4-4.3,11.5-12.2h21.5
		C70.3,110.1,55.9,120.9,38.5,120.9z"/>
	<path class="st0" d="M137.9,119.1H117V90.5c0-4.8,0.2-14.2,0.6-18.7l-20.7,47.3H73.4v-76h20.9v28.8c0,4.4-0.2,12.4-0.5,18
		l20.6-46.9h23.4V119.1z"/>
	<path class="st0" d="M163.6,71h16c11.7,0,27.4,4.6,27.4,23.2c0,19.1-11.6,25-30.6,25h-34.1v-76h48.1l10.9,17.8h-37.8V71z
		 M163.6,87.4v14h12.3c5.3,0,9.8-1.1,9.8-7c0-6.3-4.5-6.9-11.4-6.9H163.6z"/>
	<path class="st0" d="M416.3,72.7l30,46.4h-27.4l-17.4-29.6l-6.4,7.2v22.4h-21.5v-76h21.6l-0.1,15.4c0,7.3-0.1,5-0.3,11.6l20.3-27
		h27.1L416.3,72.7z"/>
	<path class="st0" d="M511.5,81.1c0,23.8-14.4,39.8-35.9,39.8c-21.8,0-36.5-15.9-36.5-39.9c0-24.1,14.5-39.9,36.7-39.9
		C497.2,41.1,511.5,57.2,511.5,81.1z M461.4,80.7c0,13.6,5.2,21.3,14.2,21.3c8.9,0,13.7-7.6,13.7-22c0-12.7-5.1-20.3-13.8-20.3
		C466.7,59.8,461.4,67.7,461.4,80.7z"/>
	<path class="st0" d="M596.7,119.1h-20.5v-11.4c0-14.4,0.3-28.8,0.8-43.2l-13.4,54.6h-16.3l-13.5-54.6c0.7,18,0.7,22.6,0.8,40
		l0.1,14.6H514v-76h31.4l4.6,19.7c2.2,9.6,4.1,19.1,5.5,28.8c1.6-9.9,3.8-19.5,6-29.4l4.4-19.2h30.8V119.1z"/>
	<path class="st0" d="M665.7,119.1h-21.8V62.6h-20.6v56.5h-21.9v-76h64.4V119.1z"/>
	<path class="st0" d="M353.8,111.6l-15.3-8.9l13.3-7.8c2.5-1.4,3.3-4.6,1.8-7.1c-1.4-2.5-4.6-3.3-7.1-1.8l-18.3,10.8l-27.6-15.9
		l27.6-15.9l18.3,10.8c0.8,0.5,1.7,0.7,2.6,0.7c1.8,0,3.5-0.9,4.4-2.5c1.4-2.5,0.6-5.6-1.8-7.1L338.4,59l15.3-8.9
		c2.5-1.4,3.3-4.6,1.9-7c-1.4-2.5-4.6-3.3-7-1.9l-15.3,8.9l-0.1-15.4c0-2.8-2.4-5.1-5.2-5.1c-2.8,0-5.1,2.4-5.1,5.2L323,56L295.4,72
		V40.1l18.5-10.5c2.5-1.4,3.4-4.5,2-7c-1.4-2.5-4.5-3.4-7-2l-13.4,7.6V10.5c0-2.8-2.3-5.2-5.2-5.2s-5.2,2.3-5.2,5.2v17.7l-13.4-7.6
		c-2.5-1.4-5.6-0.5-7,2c-1.4,2.5-0.5,5.6,2,7l18.5,10.5V72L257.5,56l0.2-21.3c0-2.8-2.3-5.2-5.1-5.2c0,0,0,0,0,0
		c-2.8,0-5.1,2.3-5.2,5.1l-0.1,15.4l-15.3-8.9c-2.5-1.4-5.6-0.6-7,1.9c-1.4,2.5-0.6,5.6,1.9,7l15.3,8.9l-13.3,7.8
		c-2.5,1.4-3.3,4.6-1.8,7.1c1,1.6,2.7,2.5,4.4,2.5c0.9,0,1.8-0.2,2.6-0.7L252.3,65l27.6,15.9l-27.6,15.9L234,86
		c-2.5-1.4-5.6-0.6-7.1,1.8c-1.4,2.5-0.6,5.6,1.8,7.1l13.3,7.8l-15.3,8.9c-2.5,1.4-3.3,4.6-1.9,7c1,1.7,2.7,2.6,4.5,2.6
		c0.9,0,1.8-0.2,2.6-0.7l15.3-8.9l0.1,15.4c0,2.8,2.3,5.1,5.2,5.1c0,0,0,0,0,0c2.8,0,5.1-2.4,5.1-5.2l-0.2-21.3l27.6-15.9v31.9
		l-18.5,10.5c-2.5,1.4-3.4,4.5-2,7c0.9,1.7,2.7,2.6,4.5,2.6c0.9,0,1.7-0.2,2.5-0.7l13.4-7.6v17.7c0,2.8,2.3,5.2,5.2,5.2
		s5.2-2.3,5.2-5.2v-17.7l13.4,7.6c0.8,0.5,1.7,0.7,2.5,0.7c1.8,0,3.5-0.9,4.5-2.6c1.4-2.5,0.5-5.6-2-7l-18.5-10.5V89.8l27.6,15.9
		l-0.2,21.3c0,2.8,2.3,5.2,5.1,5.2c0,0,0,0,0,0c2.8,0,5.1-2.3,5.2-5.1l0.1-15.4l15.3,8.9c0.8,0.5,1.7,0.7,2.6,0.7
		c1.8,0,3.5-0.9,4.5-2.6C357.1,116.2,356.3,113,353.8,111.6z"/>
</g>
<g id="Layer_2">
</g>
</svg>
